# xmcd
#
# Track frame offsets: 
#        150
#        22989
#        39680
#        57268
#        70912
#        91903
#        111460
#        128124
#        150926
#        169022
#        188915
#        209204
#
# Disc length: 3340 seconds
#
# Revision: 0
# Processed by: cddbd v1.5.2PL0 Copyright (c) Steve Scherf et al.
# Submitted via: ExactAudioCopy v1.0b3
#
DISCID=a50d0a0c
DTITLE=Houston Marchman - Econoliner
DYEAR=2012
DGENRE=Country
TTITLE0=Hand on the Wheel
TTITLE1=Waitin on a Train
TTITLE2=No Hook for My Hat
TTITLE3=Gatesville Girls
TTITLE4=Econoliner
TTITLE5=Wisdom Wall
TTITLE6=When I Come Back to Farmin'
TTITLE7=Drinkin' Double (with Ali Holder)
TTITLE8=Somewhere East
TTITLE9=Lose Control
TTITLE10=On My Own
TTITLE11=Ruby
EXTD=
EXTT0=
EXTT1=
EXTT2=
EXTT3=
EXTT4=
EXTT5=
EXTT6=
EXTT7=
EXTT8=
EXTT9=
EXTT10=
EXTT11=
PLAYORDER=
